<?xml version="1.0" encoding="UTF-8"?>
<svg id="Layer_1" data-name="Layer 1" xmlns="http://www.w3.org/2000/svg" viewBox="0 0 1080 1080">
  <defs>
    <style>
      .cls-1, .cls-2, .cls-3 {
        fill: none;
        stroke-linecap: round;
      }

      .cls-1, .cls-2, .cls-3, .cls-4, .cls-5, .cls-6, .cls-7, .cls-8, .cls-9, .cls-10, .cls-11, .cls-12, .cls-13, .cls-14, .cls-15, .cls-16, .cls-17, .cls-18 {
        stroke: #000;
        stroke-miterlimit: 10;
      }

      .cls-1, .cls-4, .cls-5, .cls-6, .cls-7, .cls-8, .cls-9, .cls-10, .cls-11, .cls-12, .cls-13, .cls-14, .cls-15, .cls-16, .cls-17, .cls-18 {
        stroke-width: 12px;
      }

      .cls-19 {
        fill: #e2e2e2;
      }

      .cls-20 {
        fill: #999;
      }

      .cls-21 {
        fill: #666;
      }

      .cls-2 {
        stroke-width: 22px;
      }

      .cls-3 {
        stroke-width: 10px;
      }

      .cls-4 {
        fill: #918f4d;
      }

      .cls-5 {
        fill: #c1813d;
      }

      .cls-6 {
        fill: #c13030;
      }

      .cls-7 {
        fill: #31dbe3;
      }

      .cls-8 {
        fill: #5a1760;
      }

      .cls-9 {
        fill: #072a51;
      }

      .cls-10 {
        fill: #084189;
      }

      .cls-11 {
        fill: #95c18e;
      }

      .cls-12 {
        fill: #ffdd02;
      }

      .cls-13 {
        fill: #f75354;
      }

      .cls-14 {
        fill: #007453;
      }

      .cls-15 {
        fill: #7fc636;
      }

      .cls-16 {
        fill: #ff9796;
      }

      .cls-17 {
        fill: #6c4f22;
      }

      .cls-18 {
        fill: #feff86;
      }
    </style>
  </defs>
  <polygon class="cls-19" points="129 162 173 911 455.1 721 129 162"/>
  <polyline class="cls-19" points="1004 574 159 175 630 675"/>
  <polygon class="cls-21" points="463 721 138 162 639 830 635 841 463 721"/>
  <polygon class="cls-20" points="519 667 138 162 639 685 639 830 519 667"/>
  <path class="cls-2" d="m119.67,162.64l44.05,755.51c.34,5.76,6.92,8.87,11.58,5.47l262.06-191.33c9.7-7.08,22.79-7.39,32.81-.76l164.74,108.99c5.57,3.68,12.94-.61,12.49-7.27l-9.28-137.63c-.94-13.89,8.37-26.39,21.95-29.48l341.84-77.73c7.18-1.63,8.3-11.38,1.69-14.61L136.64,151.34c-8.12-3.95-17.49,2.29-16.96,11.3Z"/>
  <line class="cls-1" x1="125.53" y1="151.74" x2="470.17" y2="731.53"/>
  <line class="cls-1" x1="136.64" y1="151.34" x2="639.29" y2="685.48"/>
  <line class="cls-3" x1="138" y1="162" x2="639" y2="830"/>
  <polygon class="cls-14" points="136.5 374.5 240.5 346.5 280.5 413.5 280.5 504.5 147.5 530.5 136.5 374.5"/>
  <polygon class="cls-10" points="280.5 413.5 281 574 352.46 533.51 280.5 413.5"/>
  <polygon class="cls-9" points="280.5 413.5 356.14 447.44 431.5 548.5 352.46 533.51 280.5 413.5"/>
  <polygon class="cls-8" points="235.89 337.39 274.14 337.39 356.14 447.44 280.5 413.5 235.89 337.39"/>
  <polygon class="cls-13" points="152.5 556.5 280.5 530.5 284.99 685.48 160.5 711.5 152.5 556.5"/>
  <line class="cls-14" x1="284.99" y1="685.48" x2="291" y2="834"/>
  <polygon class="cls-4" points="378.5 573.5 462.7 591.3 518.7 667.3 430 659.5 378.5 573.5"/>
  <polygon class="cls-17" points="385 279 366.65 298.01 512.75 438.5 577.5 368.91 385 279"/>
  <polygon class="cls-18" points="422.5 666.5 291.5 774.5 283.5 631.5 374.5 575.5 427.5 663.5 422.5 666.5"/>
  <path class="cls-1" d="m755.21,644.51S416.48,367.04,303.24,232.52"/>
  <polygon class="cls-7" points="605.54 379.83 537.23 458.72 627.97 537.58 711.82 431.62 605.54 379.83"/>
  <path class="cls-15" d="m275.81,299.23l118.94,126.4s30.56-30.29,68.65-33.21l-124.48-120.36s-14.81-6.1-63.12,27.18Z"/>
  <path class="cls-16" d="m489.29,418.41s-36.54-3.67-68.66,34.71l67.01,71.21s2.86-11.79,89.86-30.31l-88.21-75.61Z"/>
  <path class="cls-12" d="m577.5,494.02l99.05,84.87s-62.18,21.18-90.62,49.89l-98.3-104.45s-.14-13.79,89.86-30.31Z"/>
  <polygon class="cls-5" points="271.03 294.15 271.03 333.22 387.96 490.11 387.96 418.41 271.03 294.15"/>
  <polygon class="cls-6" points="407.5 441.5 402.89 510.14 470.17 600.46 487.64 524.33 407.5 441.5"/>
  <polygon class="cls-11" points="487.64 524.33 585.94 628.78 556.69 716.57 470.17 600.46 487.64 524.33"/>
</svg>